<svg width="29" height="27" viewBox="0 0 29 27" fill="none" xmlns="http://www.w3.org/2000/svg">
<mask id="mask0" mask-type="alpha" maskUnits="userSpaceOnUse" x="0" y="0" width="29" height="27">
<path fill-rule="evenodd" clip-rule="evenodd" d="M0.959351 0H28.5804V26.6047H0.959351V0Z" fill="white"/>
</mask>
<g mask="url(#mask0)">
<path fill-rule="evenodd" clip-rule="evenodd" d="M28.5803 13.3832C28.5803 5.99131 22.3968 -0.000976562 14.769 -0.000976562C7.14119 -0.000976562 0.957642 5.99131 0.957642 13.3832C0.957642 20.0636 6.00825 25.6007 12.611 26.6048V17.252H9.10418V13.3832H12.611V10.4345C12.611 7.08008 14.6729 5.22721 17.8277 5.22721C19.3388 5.22721 20.9194 5.48862 20.9194 5.48862V8.78238H19.1778C17.4621 8.78238 16.927 9.81409 16.927 10.8725V13.3832H20.7575L20.1452 17.252H16.927V26.6048C23.5297 25.6007 28.5803 20.0636 28.5803 13.3832Z" fill="#CCCCCC"/>
</g>
</svg>
