<svg width="27" height="28" viewBox="0 0 27 28" fill="none" xmlns="http://www.w3.org/2000/svg">
<mask id="mask0" mask-type="alpha" maskUnits="userSpaceOnUse" x="0" y="0" width="27" height="28">
<path fill-rule="evenodd" clip-rule="evenodd" d="M0 0.886963H27V27.887H0V0.886963Z" fill="white"/>
</mask>
<g mask="url(#mask0)">
<path fill-rule="evenodd" clip-rule="evenodd" d="M13.5 0.886963C9.83362 0.886963 9.37389 0.902505 7.93397 0.968212C6.49705 1.03376 5.51569 1.26202 4.65699 1.59581C3.76924 1.9408 3.01638 2.40246 2.26582 3.15305C1.51532 3.9037 1.05371 4.65665 0.708759 5.5445C0.375011 6.40331 0.146778 7.38479 0.0812399 8.82187C0.0155406 10.262 0 10.7218 0 14.3886C0 18.0554 0.0155406 18.5152 0.0812399 19.9553C0.146778 21.3924 0.375011 22.3738 0.708759 23.2326C1.05371 24.1205 1.51532 24.8734 2.26582 25.6241C3.01638 26.3747 3.76924 26.8363 4.65699 27.1814C5.51569 27.5151 6.49705 27.7434 7.93397 27.8089C9.37389 27.8746 9.83362 27.8902 13.5 27.8902C17.1664 27.8902 17.6261 27.8746 19.066 27.8089C20.5029 27.7434 21.4843 27.5151 22.343 27.1814C23.2308 26.8363 23.9836 26.3747 24.7342 25.6241C25.4847 24.8734 25.9463 24.1205 26.2913 23.2326C26.625 22.3738 26.8532 21.3924 26.9188 19.9553C26.9845 18.5152 27 18.0554 27 14.3886C27 10.7218 26.9845 10.262 26.9188 8.82187C26.8532 7.38479 26.625 6.40331 26.2913 5.5445C25.9463 4.65665 25.4847 3.9037 24.7342 3.15305C23.9836 2.40246 23.2308 1.9408 22.343 1.59581C21.4843 1.26202 20.5029 1.03376 19.066 0.968212C17.6261 0.902505 17.1664 0.886963 13.5 0.886963ZM13.5 3.31968C17.1046 3.31968 17.5316 3.33345 18.9551 3.39841C20.2713 3.45843 20.9862 3.67839 21.4619 3.86329C22.092 4.10822 22.5417 4.40079 23.0141 4.87328C23.4865 5.34572 23.7791 5.79549 24.024 6.42571C24.2089 6.90147 24.4288 7.61637 24.4888 8.93276C24.5537 10.3565 24.5675 10.7835 24.5675 14.3886C24.5675 17.9936 24.5537 18.4207 24.4888 19.8444C24.4288 21.1608 24.2089 21.8757 24.024 22.3514C23.7791 22.9817 23.4865 23.4314 23.0141 23.9039C22.5417 24.3763 22.092 24.6689 21.4619 24.9138C20.9862 25.0987 20.2713 25.3187 18.9551 25.3787C17.5318 25.4437 17.1049 25.4575 13.5 25.4575C9.89503 25.4575 9.46815 25.4437 8.04479 25.3787C6.72855 25.3187 6.01374 25.0987 5.53803 24.9138C4.90789 24.6689 4.45817 24.3763 3.98579 23.9039C3.51341 23.4314 3.22082 22.9817 2.97592 22.3514C2.79104 21.8757 2.57111 21.1608 2.51109 19.8444C2.44615 18.4207 2.43237 17.9936 2.43237 14.3886C2.43237 10.7835 2.44615 10.3565 2.51109 8.93276C2.57111 7.61637 2.79104 6.90147 2.97592 6.42571C3.22082 5.79549 3.51336 5.34572 3.98579 4.87328C4.45817 4.40079 4.90789 4.10822 5.53803 3.86329C6.01374 3.67839 6.72855 3.45843 8.04479 3.39841C9.46831 3.33345 9.8953 3.31968 13.5 3.31968Z" fill="#CCCCCC"/>
</g>
<path fill-rule="evenodd" clip-rule="evenodd" d="M13.5001 18.8891C11.0148 18.8891 9.00012 16.8741 9.00012 14.3886C9.00012 11.903 11.0148 9.88802 13.5001 9.88802C15.9854 9.88802 18.0001 11.903 18.0001 14.3886C18.0001 16.8741 15.9854 18.8891 13.5001 18.8891ZM13.5 7.45532C9.67123 7.45532 6.5675 10.5594 6.5675 14.3886C6.5675 18.2177 9.67123 21.3218 13.5 21.3218C17.3286 21.3218 20.4324 18.2177 20.4324 14.3886C20.4324 10.5594 17.3286 7.45532 13.5 7.45532Z" fill="#CCCCCC"/>
<path fill-rule="evenodd" clip-rule="evenodd" d="M22.3262 7.1815C22.3262 8.07632 21.6009 8.80167 20.7062 8.80167C19.8115 8.80167 19.0862 8.07632 19.0862 7.1815C19.0862 6.28668 19.8115 5.56128 20.7062 5.56128C21.6009 5.56128 22.3262 6.28668 22.3262 7.1815Z" fill="#CCCCCC"/>
</svg>
