<svg width="24" height="26" viewBox="0 0 24 26" fill="none" xmlns="http://www.w3.org/2000/svg">
<path d="M22.4303 6.34269C19.74 6.34269 17.5513 4.22168 17.5513 1.61462C17.5513 1.2127 17.2151 0.886963 16.8004 0.886963H12.7789C12.3643 0.886963 12.028 1.2127 12.028 1.61462V17.5924C12.028 19.125 10.7411 20.3719 9.15957 20.3719C7.57803 20.3719 6.29136 19.125 6.29136 17.5924C6.29136 16.0596 7.57803 14.8127 9.15957 14.8127C9.57432 14.8127 9.91045 14.487 9.91045 14.085V10.1879C9.91045 9.78618 9.57432 9.46025 9.15957 9.46025C4.53245 9.46025 0.768066 13.1084 0.768066 17.5924C0.768066 22.0764 4.53245 25.7243 9.15957 25.7243C13.7867 25.7243 17.5513 22.0764 17.5513 17.5924V10.5199C19.0456 11.2921 20.7087 11.6951 22.4303 11.6951C22.845 11.6951 23.1811 11.3694 23.1811 10.9675V7.07035C23.1811 6.66862 22.845 6.34269 22.4303 6.34269Z" fill="#CCCCCC"/>
</svg>
